<svg width="32" height="28" viewBox="0 0 32 28" fill="none" xmlns="http://www.w3.org/2000/svg">
<path d="M0.84375 4.0625C0.760417 3.97917 0.6875 3.88542 0.625 3.78125C0.5625 3.67708 0.520833 3.56771 0.5 3.45312C0.479167 3.33854 0.46875 3.20833 0.46875 3.0625C0.46875 2.66667 0.59375 2.34375 0.84375 2.09375C1.09375 1.84375 1.41667 1.71875 1.8125 1.71875H30.3438C30.7396 1.71875 31.0625 1.84375 31.3125 2.09375C31.5625 2.34375 31.6875 2.66667 31.6875 3.0625C31.6875 3.45833 31.5625 3.78646 31.3125 4.04688C31.0625 4.30729 30.7396 4.4375 30.3438 4.4375H1.8125C1.41667 4.4375 1.09375 4.3125 0.84375 4.0625ZM31.3125 12.9688C31.5625 13.2188 31.6875 13.5417 31.6875 13.9375C31.6875 14.3333 31.5625 14.6562 31.3125 14.9062C31.0625 15.1562 30.7396 15.2812 30.3438 15.2812H1.8125C1.41667 15.2812 1.09375 15.1562 0.84375 14.9062C0.802083 14.8646 0.760417 14.8125 0.71875 14.75C0.677083 14.6875 0.640625 14.625 0.609375 14.5625C0.578125 14.5 0.552083 14.4375 0.53125 14.375C0.510417 14.3125 0.494792 14.2448 0.484375 14.1719C0.473958 14.099 0.46875 14.0208 0.46875 13.9375C0.46875 13.5417 0.59375 13.2188 0.84375 12.9688C1.09375 12.7188 1.41667 12.5938 1.8125 12.5938H30.3438C30.7396 12.5938 31.0625 12.7188 31.3125 12.9688ZM31.3125 23.8125C31.5625 24.0625 31.6875 24.3854 31.6875 24.7812C31.6875 25.1771 31.5625 25.5052 31.3125 25.7656C31.0625 26.026 30.7396 26.1562 30.3438 26.1562H1.8125C1.41667 26.1562 1.09375 26.0312 0.84375 25.7812C0.802083 25.7396 0.765625 25.6927 0.734375 25.6406L0.640625 25.4844L0.5625 25.3281L0.5 25.1562L0.46875 24.9844V24.7812C0.46875 24.3854 0.59375 24.0625 0.84375 23.8125C1.09375 23.5625 1.41667 23.4375 1.8125 23.4375H30.3438C30.7188 23.4375 31.0417 23.5625 31.3125 23.8125Z" fill="white"/>
</svg>
